<mxfile host="app.diagrams.net" modified="2023-10-18T15:16:58.909Z" agent="Mozilla/5.0 (Windows NT 10.0; Win64; x64) AppleWebKit/537.36 (KHTML, like Gecko) Chrome/117.0.0.0 Safari/537.36" version="21.6.7" etag="TAay--MkYsxQdPGZ1O6o" type="github">
  <diagram name="Seite-1" id="DYmZpvFpW-R7Gg1HzHR1">
    <mxGraphModel>
      <root>
        <mxCell id="0" />
        <mxCell id="1" parent="0" />
      </root>
    </mxGraphModel>
  </diagram>
</mxfile>
